ffmpeg version 4.2.4-1ubuntu0.1 Copyright (c) 2000-2020 the FFmpeg developers
  built with gcc 9 (Ubuntu 9.3.0-10ubuntu2)
  configuration: --prefix=/usr --extra-version=1ubuntu0.1 --toolchain=hardened --libdir=/usr/lib/x86_64-linux-gnu --incdir=/usr/include/x86_64-linux-gnu --arch=amd64 --enable-gpl --disable-stripping --enable-avresample --disable-filter=resample --enable-avisynth --enable-gnutls --enable-ladspa --enable-libaom --enable-libass --enable-libbluray --enable-libbs2b --enable-libcaca --enable-libcdio --enable-libcodec2 --enable-libflite --enable-libfontconfig --enable-libfreetype --enable-libfribidi --enable-libgme --enable-libgsm --enable-libjack --enable-libmp3lame --enable-libmysofa --enable-libopenjpeg --enable-libopenmpt --enable-libopus --enable-libpulse --enable-librsvg --enable-librubberband --enable-libshine --enable-libsnappy --enable-libsoxr --enable-libspeex --enable-libssh --enable-libtheora --enable-libtwolame --enable-libvidstab --enable-libvorbis --enable-libvpx --enable-libwavpack --enable-libwebp --enable-libx265 --enable-libxml2 --enable-libxvid --enable-libzmq --enable-libzvbi --enable-lv2 --enable-omx --enable-openal --enable-opencl --enable-opengl --enable-sdl2 --enable-libdc1394 --enable-libdrm --enable-libiec61883 --enable-nvenc --enable-chromaprint --enable-frei0r --enable-libx264 --enable-shared
  WARNING: library configuration mismatch
  avcodec     configuration: --prefix=/usr --extra-version=1ubuntu0.1 --toolchain=hardened --libdir=/usr/lib/x86_64-linux-gnu --incdir=/usr/include/x86_64-linux-gnu --arch=amd64 --enable-gpl --disable-stripping --enable-avresample --disable-filter=resample --enable-avisynth --enable-gnutls --enable-ladspa --enable-libaom --enable-libass --enable-libbluray --enable-libbs2b --enable-libcaca --enable-libcdio --enable-libcodec2 --enable-libflite --enable-libfontconfig --enable-libfreetype --enable-libfribidi --enable-libgme --enable-libgsm --enable-libjack --enable-libmp3lame --enable-libmysofa --enable-libopenjpeg --enable-libopenmpt --enable-libopus --enable-libpulse --enable-librsvg --enable-librubberband --enable-libshine --enable-libsnappy --enable-libsoxr --enable-libspeex --enable-libssh --enable-libtheora --enable-libtwolame --enable-libvidstab --enable-libvorbis --enable-libvpx --enable-libwavpack --enable-libwebp --enable-libx265 --enable-libxml2 --enable-libxvid --enable-libzmq --enable-libzvbi --enable-lv2 --enable-omx --enable-openal --enable-opencl --enable-opengl --enable-sdl2 --enable-libdc1394 --enable-libdrm --enable-libiec61883 --enable-nvenc --enable-chromaprint --enable-frei0r --enable-libx264 --enable-shared --enable-version3 --disable-doc --disable-programs --enable-libaribb24 --enable-liblensfun --enable-libopencore_amrnb --enable-libopencore_amrwb --enable-libtesseract --enable-libvo_amrwbenc
  libavutil      56. 31.100 / 56. 31.100
  libavcodec     58. 54.100 / 58. 54.100
  libavformat    58. 29.100 / 58. 29.100
  libavdevice    58.  8.100 / 58.  8.100
  libavfilter     7. 57.100 /  7. 57.100
  libavresample   4.  0.  0 /  4.  0.  0
  libswscale      5.  5.100 /  5.  5.100
  libswresample   3.  5.100 /  3.  5.100
  libpostproc    55.  5.100 / 55.  5.100
Input #0, image2pipe, from 'pipe:':
  Duration: N/A, bitrate: N/A
    Stream #0:0: Video: ppm, rgb24, 320x240, 20 fps, 20 tbr, 20 tbn, 20 tbc
Stream mapping:
  Stream #0:0 -> #0:0 (ppm (native) -> h264 (libx264))
[libx264 @ 0x561cba62df40] using cpu capabilities: MMX2 SSE2Fast SSSE3 SSE4.2 AVX FMA3 BMI2 AVX2
[libx264 @ 0x561cba62df40] profile High, level 1.3
[libx264 @ 0x561cba62df40] 264 - core 155 r2917 0a84d98 - H.264/MPEG-4 AVC codec - Copyleft 2003-2018 - http://www.videolan.org/x264.html - options: cabac=1 ref=3 deblock=1:0:0 analyse=0x3:0x113 me=hex subme=7 psy=1 psy_rd=1.00:0.00 mixed_ref=1 me_range=16 chroma_me=1 trellis=1 8x8dct=1 cqm=0 deadzone=21,11 fast_pskip=1 chroma_qp_offset=-2 threads=7 lookahead_threads=1 sliced_threads=0 nr=0 decimate=1 interlaced=0 bluray_compat=0 constrained_intra=0 bframes=3 b_pyramid=2 b_adapt=1 b_bias=0 direct=1 weightb=1 open_gop=0 weightp=2 keyint=250 keyint_min=20 scenecut=40 intra_refresh=0 rc_lookahead=40 rc=abr mbtree=1 bitrate=400 ratetol=1.0 qcomp=0.60 qpmin=0 qpmax=69 qpstep=4 ip_ratio=1.40 aq=1:1.00
Output #0, mp4, to './mission_records/01c1be8b-0264-4f50-9a33-b0e9a870fa69/video.mp4':
  Metadata:
    encoder         : Lavf58.29.100
    Stream #0:0: Video: h264 (libx264) (avc1 / 0x31637661), yuv420p, 320x240, q=-1--1, 400 kb/s, 20 fps, 10240 tbn, 20 tbc
    Metadata:
      encoder         : Lavc58.54.100 libx264
    Side data:
      cpb: bitrate max/min/avg: 0/0/400000 buffer size: 0 vbv_delay: -1
frame=   32 fps=0.0 q=0.0 size=       0kB time=00:00:00.00 bitrate=N/A speed=   0x    frame=   41 fps= 40 q=0.0 size=       0kB time=00:00:00.00 bitrate=N/A speed=   0x    frame=   50 fps= 32 q=0.0 size=       0kB time=00:00:00.00 bitrate=N/A speed=   0x    frame=   60 fps= 29 q=27.0 size=       0kB time=00:00:00.30 bitrate=   1.3kbits/s speed=0.145x    frame=   68 fps= 26 q=25.0 size=       0kB time=00:00:00.70 bitrate=   0.5kbits/s speed=0.272x    frame=   77 fps= 25 q=23.0 size=       0kB time=00:00:01.15 bitrate=   0.3kbits/s speed=0.37x    frame=   86 fps= 24 q=22.0 size=       0kB time=00:00:01.60 bitrate=   0.2kbits/s speed=0.439x    frame=   96 fps= 23 q=21.0 size=       0kB time=00:00:02.10 bitrate=   0.2kbits/s speed=0.501x    frame=  105 fps= 22 q=20.0 size=       0kB time=00:00:02.55 bitrate=   0.2kbits/s speed=0.543x    frame=  114 fps= 22 q=19.0 size=       0kB time=00:00:03.00 bitrate=   0.1kbits/s speed=0.572x    frame=  123 fps= 21 q=19.0 size=       0kB time=00:00:03.45 bitrate=   0.1kbits/s speed= 0.6x    frame=  133 fps= 21 q=19.0 size=       0kB time=00:00:03.95 bitrate=   0.1kbits/s speed=0.624x    frame=  143 fps= 21 q=18.0 size=       0kB time=00:00:04.45 bitrate=   0.1kbits/s speed=0.647x    frame=  153 fps= 21 q=18.0 size=       0kB time=00:00:04.95 bitrate=   0.1kbits/s speed=0.665x    frame=  162 fps= 20 q=18.0 size=       0kB time=00:00:05.40 bitrate=   0.1kbits/s speed=0.678x    frame=  172 fps= 20 q=18.0 size=       0kB time=00:00:05.90 bitrate=   0.1kbits/s speed=0.693x    frame=  181 fps= 20 q=18.0 size=     256kB time=00:00:06.35 bitrate= 330.3kbits/s speed=0.702x    frame=  190 fps= 20 q=18.0 size=     256kB time=00:00:06.80 bitrate= 308.5kbits/s speed=0.712x    frame=  199 fps= 20 q=18.0 size=     256kB time=00:00:07.25 bitrate= 289.3kbits/s speed=0.721x    frame=  208 fps= 20 q=17.0 size=     256kB time=00:00:07.70 bitrate= 272.4kbits/s speed=0.727x    frame=  217 fps= 20 q=17.0 size=     256kB time=00:00:08.15 bitrate= 257.4kbits/s speed=0.733x    frame=  226 fps= 19 q=17.0 size=     256kB time=00:00:08.60 bitrate= 243.9kbits/s speed=0.739x    frame=  235 fps= 19 q=18.0 size=     256kB time=00:00:09.05 bitrate= 231.8kbits/s speed=0.742x    frame=  244 fps= 19 q=17.0 size=     256kB time=00:00:09.50 bitrate= 220.8kbits/s speed=0.748x    frame=  254 fps= 19 q=17.0 size=     256kB time=00:00:10.00 bitrate= 209.8kbits/s speed=0.755x    frame=  263 fps= 19 q=17.0 size=     256kB time=00:00:10.45 bitrate= 200.7kbits/s speed=0.759x    frame=  273 fps= 19 q=17.0 size=     256kB time=00:00:10.95 bitrate= 191.6kbits/s speed=0.766x    frame=  282 fps= 19 q=17.0 size=     256kB time=00:00:11.40 bitrate= 184.0kbits/s speed=0.769x    frame=  291 fps= 19 q=17.0 size=     512kB time=00:00:11.85 bitrate= 354.0kbits/s speed=0.772x    frame=  301 fps= 19 q=19.0 size=     512kB time=00:00:12.35 bitrate= 339.6kbits/s speed=0.777x    frame=  310 fps= 19 q=18.0 size=     512kB time=00:00:12.80 bitrate= 327.7kbits/s speed=0.781x    frame=  319 fps= 19 q=18.0 size=     512kB time=00:00:13.25 bitrate= 316.6kbits/s speed=0.783x    frame=  328 fps= 19 q=18.0 size=     512kB time=00:00:13.70 bitrate= 306.2kbits/s speed=0.785x    frame=  337 fps= 19 q=18.0 size=     512kB time=00:00:14.15 bitrate= 296.4kbits/s speed=0.788x    frame=  346 fps= 19 q=18.0 size=     512kB time=00:00:14.60 bitrate= 287.3kbits/s speed=0.79x    frame=  355 fps= 19 q=18.0 size=     512kB time=00:00:15.05 bitrate= 278.7kbits/s speed=0.792x    frame=  364 fps= 19 q=18.0 size=     512kB time=00:00:15.50 bitrate= 270.6kbits/s speed=0.794x    frame=  373 fps= 19 q=18.0 size=     512kB time=00:00:15.95 bitrate= 263.0kbits/s speed=0.795x    frame=  382 fps= 19 q=18.0 size=     512kB time=00:00:16.40 bitrate= 255.8kbits/s speed=0.798x    frame=  392 fps= 19 q=18.0 size=     768kB time=00:00:16.90 bitrate= 372.3kbits/s speed= 0.8x    frame=  401 fps= 19 q=18.0 size=     768kB time=00:00:17.35 bitrate= 362.6kbits/s speed=0.802x    frame=  411 fps= 19 q=18.0 size=     768kB time=00:00:17.85 bitrate= 352.5kbits/s speed=0.805x    frame=  420 fps= 19 q=18.0 size=     768kB time=00:00:18.30 bitrate= 343.8kbits/s speed=0.806x    frame=  429 fps= 18 q=18.0 size=     768kB time=00:00:18.75 bitrate= 335.6kbits/s speed=0.808x    frame=  439 fps= 18 q=18.0 size=     768kB time=00:00:19.25 bitrate= 326.8kbits/s speed=0.81x    frame=  449 fps= 18 q=18.0 size=     768kB time=00:00:19.75 bitrate= 318.6kbits/s speed=0.813x    frame=  458 fps= 18 q=17.0 size=     768kB time=00:00:20.20 bitrate= 311.5kbits/s speed=0.814x    frame=  467 fps= 18 q=17.0 size=     768kB time=00:00:20.65 bitrate= 304.7kbits/s speed=0.816x    frame=  476 fps= 18 q=17.0 size=     768kB time=00:00:21.10 bitrate= 298.2kbits/s speed=0.817x    frame=  480 fps= 18 q=-1.0 Lsize=    1109kB time=00:00:23.85 bitrate= 381.0kbits/s speed=0.912x    
video:1103kB audio:0kB subtitle:0kB other streams:0kB global headers:0kB muxing overhead: 0.575702%
[libx264 @ 0x561cba62df40] frame I:2     Avg QP:13.89  size: 20925
[libx264 @ 0x561cba62df40] frame P:133   Avg QP: 9.53  size:  5558
[libx264 @ 0x561cba62df40] frame B:345   Avg QP:15.02  size:  1008
[libx264 @ 0x561cba62df40] consecutive B-frames:  2.7%  1.7%  8.1% 87.5%
[libx264 @ 0x561cba62df40] mb I  I16..4: 21.8% 31.7% 46.5%
[libx264 @ 0x561cba62df40] mb P  I16..4:  3.0%  0.8%  0.4%  P16..4: 55.9%  5.0% 12.3%  0.0%  0.0%    skip:22.5%
[libx264 @ 0x561cba62df40] mb B  I16..4:  0.1%  0.0%  0.0%  B16..8: 21.9%  2.2%  1.9%  direct: 6.1%  skip:67.8%  L0:46.6% L1:49.1% BI: 4.3%
[libx264 @ 0x561cba62df40] final ratefactor: 13.56
[libx264 @ 0x561cba62df40] 8x8 transform intra:22.6% inter:43.9%
[libx264 @ 0x561cba62df40] coded y,uvDC,uvAC intra: 41.1% 49.2% 42.9% inter: 18.6% 19.1% 12.8%
[libx264 @ 0x561cba62df40] i16 v,h,dc,p:  8% 70% 21%  0%
[libx264 @ 0x561cba62df40] i8 v,h,dc,ddl,ddr,vr,hd,vl,hu:  6% 28% 32%  6%  5%  3%  5%  4% 11%
[libx264 @ 0x561cba62df40] i4 v,h,dc,ddl,ddr,vr,hd,vl,hu: 10% 31% 18%  6%  7%  6%  8%  6%  9%
[libx264 @ 0x561cba62df40] i8c dc,h,v,p: 30% 64%  4%  2%
[libx264 @ 0x561cba62df40] Weighted P-Frames: Y:12.8% UV:0.8%
[libx264 @ 0x561cba62df40] ref P L0: 81.7%  5.3%  9.1%  3.6%  0.3%
[libx264 @ 0x561cba62df40] ref B L0: 90.7%  7.4%  1.9%
[libx264 @ 0x561cba62df40] ref B L1: 93.8%  6.2%
[libx264 @ 0x561cba62df40] kb/s:376.23
